<svg xmlns="http://www.w3.org/2000/svg" data-name="Layer 1" viewBox="0 0 580.5 600"><path fill="#101011" d="M468 515c-9 29-1 28-18 46 0 7 8 14-1 18-4 4-2 19-2 21H146c12-84-10-27-113-66-47-16-32-28-25-63 18-26 37-52 62-74 22-19 11-18 24-18 10-17 16-35 29-50 39-53 88-36 95-58 4-9 14-10 18-17 21-40 4-37-4-53-7-12-4-21-10-32-6-12-28-54-5-51-1-17-9-34-8-51 12-41 20-43 35-52 24-19 48-15 73-13 36 6 25 12 40 20 47 24 24 71 20 104 30-6-7 49-13 55 0 20-3 60 19 62 11 2 10 20 21 25 23 13 46 27 71 36 30 5 38 37 37 62-5 39-30 71-35 110l-2 7-3 15-1 5s0 4-3 12z"/><path fill="#fff" d="M578 489z"/></svg>